<svg width="138" height="28" viewBox="0 0 138 28" fill="none" xmlns="http://www.w3.org/2000/svg">
<path d="M55.96 27.0947L52.8779 27.999L49.1533 18.333C49.1533 18.333 48.1899 15.6162 48.1777 15.6064C47.192 13.0881 47.3047 13.2234 45.8154 9.38379C45.3866 8.26657 44.7607 6.39209 44.1924 4.75684C43.9694 4.1032 43.6784 3.1473 43.6768 3.14648C43.6705 3.16471 43.4017 3.95394 43.0459 5.0293C42.3259 7.07705 42.0578 7.78169 41.0654 10.2354C40.5985 11.4224 39.6615 13.5977 38.8662 15.5918L37.7344 18.333L33.6992 27.959L30.6172 27L42.2666 0H45.2939L55.96 27.0947ZM67.4453 16.2295C67.4453 17.0074 67.4853 17.7856 67.5566 18.5635C67.9848 22.9439 70.5125 25.3094 75.0293 25.2461C79.4439 25.1819 82.1775 22.5228 82.3438 18.126C82.3754 17.3564 82.3838 16.5869 82.3838 15.8174V0H85.8779V16.2373C85.8779 17.2295 85.8467 18.2224 85.7754 19.2139C85.4031 24.1984 81.4165 27.8089 75.0059 27.9121C68.8481 28.0071 64.8697 24.6264 64.2988 19.373C64.1959 18.4125 64.1406 17.4513 64.1406 16.4834L64.1318 0H67.4453V16.2295ZM21.7588 27.5869H18.3506V0.0244141H21.7588V27.5869ZM137.998 2.69922H126.604V24.7939H138V27.5869H123.204V0.0244141H137.998V2.69922ZM3.43164 27.5781H0V0H3.43164V27.5781ZM115.021 2.73047H106.305V27.5781H102.873V2.76172H94.124V0.0244141H115.021V2.73047Z" fill="black"/>
</svg>
