{"asset":{"version":"2.0","generator":"THREE.GLTFExporter r175"},"scenes":[{"name":"AuxScene","nodes":[10]}],"scene":0,"nodes":[{"mesh":0},{"mesh":1},{"mesh":2},{"mesh":3},{"mesh":4},{"mesh":5},{"matrix":[0.5123962182511214,0,-0.5123962182511215,0,0,-0.7246376811594203,0,0,0.5123962182511215,0,0.5123962182511214,0,0,0,0,1],"children":[0,1,2,3,4,5]},{"children":[6]},{"matrix":[1,0,0,0,0,1,0,0,0,0,1,0,-36.38013197303579,10.168346870636595,34.33054722219608,1],"children":[7]},{"children":[8]},{"children":[9]}],"bufferViews":[{"buffer":0,"byteOffset":0,"byteLength":45936,"target":34962,"byteStride":12},{"buffer":0,"byteOffset":45936,"byteLength":30624,"target":34962,"byteStride":8},{"buffer":0,"byteOffset":76560,"byteLength":45936,"target":34962,"byteStride":12},{"buffer":0,"byteOffset":122496,"byteLength":50256,"target":34962,"byteStride":12},{"buffer":0,"byteOffset":172752,"byteLength":33504,"target":34962,"byteStride":8},{"buffer":0,"byteOffset":206256,"byteLength":50256,"target":34962,"byteStride":12},{"buffer":0,"byteOffset":256512,"byteLength":2736,"target":34962,"byteStride":12},{"buffer":0,"byteOffset":259248,"byteLength":1824,"target":34962,"byteStride":8},{"buffer":0,"byteOffset":261072,"byteLength":2736,"target":34962,"byteStride":12},{"buffer":0,"byteOffset":263808,"byteLength":5616,"target":34962,"byteStride":12},{"buffer":0,"byteOffset":269424,"byteLength":3744,"target":34962,"byteStride":8},{"buffer":0,"byteOffset":273168,"byteLength":5616,"target":34962,"byteStride":12},{"buffer":0,"byteOffset":278784,"byteLength":2736,"target":34962,"byteStride":12},{"buffer":0,"byteOffset":281520,"byteLength":1824,"target":34962,"byteStride":8},{"buffer":0,"byteOffset":283344,"byteLength":2736,"target":34962,"byteStride":12},{"buffer":0,"byteOffset":286080,"byteLength":5616,"target":34962,"byteStride":12},{"buffer":0,"byteOffset":291696,"byteLength":3744,"target":34962,"byteStride":8},{"buffer":0,"byteOffset":295440,"byteLength":5616,"target":34962,"byteStride":12}],"buffers":[{"byteLength":301056,"uri":"data:application/octet-stream;base64,"}],"accessors":[{"bufferView":0,"componentType":5126,"count":3828,"max":[56.341064453125,28.36463737487793,4.599999904632568],"min":[30.231718063354492,-0.30000001192092896,-0.6000000238418579],"type":"VEC3"},{"bufferView":1,"componentType":5126,"count":3828,"max":[56.341064453125,27.999000549316406],"min":[-0.30000001192092896,-3.5999999046325684],"type":"VEC2"},{"bufferView":2,"componentType":5126,"count":3828,"max":[0.949142575263977,0.9585267901420593,1],"min":[-0.9551358819007874,-1,-1],"type":"VEC3"},{"bufferView":3,"componentType":5126,"count":4188,"max":[86.17790222167969,28.212833404541016,4.599999904632568],"min":[63.83171844482422,-0.30000001192092896,-0.6000000238418579],"type":"VEC3"},{"bufferView":4,"componentType":5126,"count":4188,"max":[86.17790222167969,27.912099838256836],"min":[-0.30000001192092896,-3.5999999046325684],"type":"VEC2"},{"bufferView":5,"componentType":5126,"count":4188,"max":[1,0.9984177350997925,1],"min":[-1,-1,-1],"type":"VEC3"},{"bufferView":6,"componentType":5126,"count":228,"max":[22.058799743652344,27.886899948120117,4.599999904632568],"min":[18.050600051879883,-0.2755858898162842,-0.6000000238418579],"type":"VEC3"},{"bufferView":7,"componentType":5126,"count":228,"max":[27.886899948120117,27.58690071105957],"min":[-0.2755858898162842,-3.5999999046325684],"type":"VEC2"},{"bufferView":8,"componentType":5126,"count":228,"max":[1,1,1],"min":[-1,-1,-1],"type":"VEC3"},{"bufferView":9,"componentType":5126,"count":468,"max":[138.3000030517578,27.886899948120117,4.599999904632568],"min":[122.90399932861328,-0.2755858898162842,-0.6000000238418579],"type":"VEC3"},{"bufferView":10,"componentType":5126,"count":468,"max":[138.3000030517578,27.58690071105957],"min":[-0.2755858898162842,-3.5999999046325684],"type":"VEC2"},{"bufferView":11,"componentType":5126,"count":468,"max":[1,1,1],"min":[-1,-1,-1],"type":"VEC3"},{"bufferView":12,"componentType":5126,"count":228,"max":[3.731640100479126,27.87809944152832,4.599999904632568],"min":[-0.30000001192092896,-0.30000001192092896,-0.6000000238418579],"type":"VEC3"},{"bufferView":13,"componentType":5126,"count":228,"max":[27.87809944152832,27.578100204467773],"min":[-0.30000001192092896,-3.5999999046325684],"type":"VEC2"},{"bufferView":14,"componentType":5126,"count":228,"max":[1,1,1],"min":[-1,-1,-1],"type":"VEC3"},{"bufferView":15,"componentType":5126,"count":468,"max":[115.32099914550781,27.87809944152832,4.599999904632568],"min":[93.8239974975586,-0.2755858898162842,-0.6000000238418579],"type":"VEC3"},{"bufferView":16,"componentType":5126,"count":468,"max":[115.32099914550781,27.578100204467773],"min":[-0.2755858898162842,-3.5999999046325684],"type":"VEC2"},{"bufferView":17,"componentType":5126,"count":468,"max":[1,1,1],"min":[-1,-1,-1],"type":"VEC3"}],"materials":[{"pbrMetallicRoughness":{"baseColorFactor":[0,0,0,1],"metallicFactor":1,"roughnessFactor":0.54},"doubleSided":true,"extensions":{"KHR_materials_transmission":{"transmissionFactor":0.52},"KHR_materials_volume":{"thicknessFactor":0,"attenuationColor":[1,1,1]}}}],"meshes":[{"primitives":[{"mode":4,"attributes":{"POSITION":0,"TEXCOORD_0":1,"NORMAL":2},"material":0}]},{"primitives":[{"mode":4,"attributes":{"POSITION":3,"TEXCOORD_0":4,"NORMAL":5},"material":0}]},{"primitives":[{"mode":4,"attributes":{"POSITION":6,"TEXCOORD_0":7,"NORMAL":8},"material":0}]},{"primitives":[{"mode":4,"attributes":{"POSITION":9,"TEXCOORD_0":10,"NORMAL":11},"material":0}]},{"primitives":[{"mode":4,"attributes":{"POSITION":12,"TEXCOORD_0":13,"NORMAL":14},"material":0}]},{"primitives":[{"mode":4,"attributes":{"POSITION":15,"TEXCOORD_0":16,"NORMAL":17},"material":0}]}],"extensionsUsed":["KHR_materials_transmission","KHR_materials_volume"]}