<svg width="1304" height="266" viewBox="0 0 1304 266" fill="none" xmlns="http://www.w3.org/2000/svg">
<path d="M32.4206 261.045L32.4207 0L0.000110626 -1.41715e-06L9.92156e-05 261.045L32.4206 261.045Z" fill="white"/>
<path d="M205.585 261.122L205.585 0.230469L173.387 0.230467L173.387 261.122L205.585 261.122Z" fill="white"/>
<path fill-rule="evenodd" clip-rule="evenodd" d="M406.552 47.2827C393.942 80.485 387.767 96.8248 387.782 96.8248C387.798 96.8325 394.141 80.1315 406.552 47.2827Z" fill="white"/>
<path d="M367.229 147.589L356.535 173.528L318.414 264.65L289.288 255.565L399.359 -5.65587e-06L427.964 -4.40548e-06L528.75 256.465L499.623 265.027L464.43 173.528C464.43 173.528 455.328 147.819 455.214 147.727C445.898 123.886 446.963 125.17 432.89 88.8238C428.837 78.2483 422.931 60.5019 417.561 45.0229C415.454 38.8359 412.704 29.7898 412.688 29.7821C412.688 29.7821 410.122 37.3065 406.721 47.6053C399.918 66.9887 397.39 73.6599 388.013 96.8861C383.6 108.123 374.744 128.713 367.229 147.589Z" fill="white"/>
<path d="M605.963 -8.98141e-06L606.039 156.028C606.039 165.189 606.568 174.281 607.541 183.373C612.934 233.1 650.518 265.103 708.702 264.204C769.276 263.228 806.944 229.05 810.46 181.867C811.135 172.483 811.433 163.091 811.433 153.699L811.433 0L778.415 -1.44327e-06L778.415 149.718C778.415 157.004 778.339 164.29 778.04 171.576C776.469 213.194 750.637 238.357 708.924 238.964C666.245 239.564 642.359 217.175 638.314 175.711C637.64 168.348 637.265 160.985 637.265 153.622L637.265 -7.61316e-06L605.963 -8.98141e-06Z" fill="white"/>
<path d="M889.344 26.1467L972.012 26.1467L972.012 261.045L1004.43 261.045L1004.43 25.847L1086.8 25.847L1086.8 0.230469L889.344 0.23046L889.344 26.1467Z" fill="white"/>
<path d="M1196.24 234.683L1303.92 234.683L1303.92 261.122L1164.11 261.122L1164.11 0.230463L1303.89 0.230469L1303.89 25.5472L1196.24 25.5472L1196.24 234.683Z" fill="white"/>
</svg>
